# xmcd CD database file
#
# Track frame offsets:
#	150
#	27209
#	49084
#	68012
#	78277
#	92927
#	114778
#	137348
#	160351
#	188076
#	205945
#	233777
#	252311
#	268885
#
# Disc length: 3917 seconds
#
# Revision: 0
# Processed by: cddbd v1.5.2PL0 Copyright (c) Steve Scherf et al.
# Submitted via: CDex 1.70beta2
#
DISCID=b70f4b0e
DTITLE=Ekkehard Wölk - The Berlin Album
DYEAR=2009
DGENRE=Jazz
TTITLE0=Morning Choral
TTITLE1=A Walk in the Tiergarten
TTITLE2=Funeral March/Marcia Funebre
TTITLE3=Market-Square at the Winterfeldtplatz
TTITLE4=Casual Meetings
TTITLE5=At the Schlachtensee
TTITLE6=S-Bahn
TTITLE7=Gruss
TTITLE8=Das Einheitsfrontlied
TTITLE9=Ich weiss nicht, zu wem ich gehöre
TTITLE10=Spartakus
TTITLE11=Berlin im Licht
TTITLE12=uncertain Future
TTITLE13=Ich hab' noch einen Koffer in Berlin
EXTD=YEAR: 2009
EXTT0=
EXTT1=
EXTT2=
EXTT3=
EXTT4=
EXTT5=
EXTT6=
EXTT7=
EXTT8=
EXTT9=
EXTT10=
EXTT11=
EXTT12=
EXTT13=
PLAYORDER=
